{
  "accessors": [
    {
      "bufferView": 2,
      "componentType": 5126,
      "count": 764,
      "max": [
        -59.67499923706055,
        72.15000915527344,
        0.3533490300178528
      ],
      "min": [
        -178.2633819580078,
        -103.94999694824219,
        -11.647350311279297
      ],
      "type": "VEC3"
    },
    {
      "bufferView": 2,
      "byteOffset": 9168,
      "componentType": 5126,
      "count": 764,
      "max": [
        1.0,
        0.773531436920166,
        0.8314772844314575
      ],
      "min": [
        -0.8314916491508484,
        -1.0,
        -0.8314916491508484
      ],
      "type": "VEC3"
    },
    {
      "bufferView": 1,
      "componentType": 5126,
      "count": 764,
      "max": [
        7.69582986831665,
        8.3125
      ],
      "min": [
        -0.479434996843338,
        -0.267799973487854
      ],
      "type": "VEC2"
    },
    {
      "bufferView": 0,
      "componentType": 5125,
      "count": 1146,
      "type": "SCALAR"
    },
    {
      "bufferView": 2,
      "byteOffset": 18336,
      "componentType": 5126,
      "count": 65532,
      "max": [
        -4.214670181274414,
        111.60399627685547,
        0.050001099705696106
      ],
      "min": [
        -187.98399353027344,
        -126.9800033569336,
        -22.160802841186523
      ],
      "type": "VEC3"
    },
    {
      "bufferView": 2,
      "byteOffset": 804720,
      "componentType": 5126,
      "count": 65532,
      "max": [
        1.0,
        1.0,
        1.0
      ],
      "min": [
        -1.0,
        -1.0,
        -1.0
      ],
      "type": "VEC3"
    },
    {
      "bufferView": 1,
      "byteOffset": 6112,
      "componentType": 5126,
      "count": 65532,
      "max": [
        0.9998233914375305,
        1.0
      ],
      "min": [
        -3.487967248361201e-08,
        0.0
      ],
      "type": "VEC2"
    },
    {
      "bufferView": 0,
      "byteOffset": 4584,
      "componentType": 5125,
      "count": 207756,
      "type": "SCALAR"
    },
    {
      "bufferView": 2,
      "byteOffset": 1591104,
      "componentType": 5126,
      "count": 65534,
      "max": [
        26.807199478149414,
        124.30001068115234,
        9.099212646484375
      ],
      "min": [
        -222.5749969482422,
        -130.80001831054688,
        -41.259300231933594
      ],
      "type": "VEC3"
    },
    {
      "bufferView": 2,
      "byteOffset": 2377512,
      "componentType": 5126,
      "count": 65534,
      "max": [
        1.0,
        1.0,
        1.0
      ],
      "min": [
        -1.0,
        -1.0,
        -1.0
      ],
      "type": "VEC3"
    },
    {
      "bufferView": 1,
      "byteOffset": 530368,
      "componentType": 5126,
      "count": 65534,
      "max": [
        0.9998210072517395,
        1.0
      ],
      "min": [
        -1.2482265887570065e-08,
        1.7881393432617188e-07
      ],
      "type": "VEC2"
    },
    {
      "bufferView": 0,
      "byteOffset": 835608,
      "componentType": 5125,
      "count": 175860,
      "type": "SCALAR"
    },
    {
      "bufferView": 2,
      "byteOffset": 3163920,
      "componentType": 5126,
      "count": 65532,
      "max": [
        66.19999694824219,
        124.30000305175781,
        17.55000114440918
      ],
      "min": [
        -207.10699462890625,
        -134.56900024414063,
        -42.35747528076172
      ],
      "type": "VEC3"
    },
    {
      "bufferView": 2,
      "byteOffset": 3950304,
      "componentType": 5126,
      "count": 65532,
      "max": [
        1.0,
        1.0,
        1.0
      ],
      "min": [
        -1.0,
        -1.0,
        -1.0
      ],
      "type": "VEC3"
    },
    {
      "bufferView": 1,
      "byteOffset": 1054640,
      "componentType": 5126,
      "count": 65532,
      "max": [
        0.9998192191123962,
        1.0
      ],
      "min": [
        -3.487967248361201e-08,
        2.5033950805664063e-06
      ],
      "type": "VEC2"
    },
    {
      "bufferView": 0,
      "byteOffset": 1539048,
      "componentType": 5125,
      "count": 143469,
      "type": "SCALAR"
    },
    {
      "bufferView": 2,
      "byteOffset": 4736688,
      "componentType": 5126,
      "count": 4885,
      "max": [
        -95.73899841308594,
        86.81380462646484,
        -1.2410000562667847
      ],
      "min": [
        -182.74899291992188,
        -129.26602172851563,
        -9.811369895935059
      ],
      "type": "VEC3"
    },
    {
      "bufferView": 2,
      "byteOffset": 4795308,
      "componentType": 5126,
      "count": 4885,
      "max": [
        1.0,
        1.0,
        1.0
      ],
      "min": [
        -1.0,
        -1.0,
        -1.0
      ],
      "type": "VEC3"
    },
    {
      "bufferView": 1,
      "byteOffset": 1578896,
      "componentType": 5126,
      "count": 4885,
      "max": [
        0.9998118877410889,
        1.0
      ],
      "min": [
        0.0,
        8.344650268554688e-06
      ],
      "type": "VEC2"
    },
    {
      "bufferView": 0,
      "byteOffset": 2112924,
      "componentType": 5125,
      "count": 9969,
      "type": "SCALAR"
    }
  ],
  "asset": {
    "extras": {
      "author": "groty (https://sketchfab.com/grotypendejo)",
      "license": "CC-BY-4.0 (http://creativecommons.org/licenses/by/4.0/)",
      "source": "https://sketchfab.com/3d-models/animal-hospital-map-for-prisma3d-4a74e2f7f40044c4a721125eff3209a8",
      "title": "Animal Hospital Map (for Prisma3D)"
    },
    "generator": "Sketchfab-17.22.0",
    "version": "2.0"
  },
  "bufferViews": [
    {
      "buffer": 0,
      "byteLength": 2152800,
      "name": "floatBufferViews",
      "target": 34963
    },
    {
      "buffer": 0,
      "byteLength": 1617976,
      "byteOffset": 2152800,
      "byteStride": 8,
      "name": "floatBufferViews",
      "target": 34962
    },
    {
      "buffer": 0,
      "byteLength": 4853928,
      "byteOffset": 3770776,
      "byteStride": 12,
      "name": "floatBufferViews",
      "target": 34962
    }
  ],
  "buffers": [
    {
      "byteLength": 8624704,
      "uri": "scene.bin"
    }
  ],
  "images": [
    {
      "uri": "textures/Material.002_baseColor.png"
    }
  ],
  "materials": [
    {
      "alphaMode": "BLEND",
      "doubleSided": true,
      "name": "Material",
      "pbrMetallicRoughness": {
        "baseColorFactor": [
          0.0232975,
          0.105614,
          0.165046,
          0.157143
        ],
        "metallicFactor": 0.0,
        "roughnessFactor": 0.5
      }
    },
    {
      "doubleSided": true,
      "name": "Material.002",
      "pbrMetallicRoughness": {
        "baseColorTexture": {
          "index": 0
        },
        "metallicFactor": 0.0
      }
    }
  ],
  "meshes": [
    {
      "name": "Object_0",
      "primitives": [
        {
          "attributes": {
            "NORMAL": 1,
            "POSITION": 0,
            "TEXCOORD_0": 2
          },
          "indices": 3,
          "material": 0,
          "mode": 4
        }
      ]
    },
    {
      "name": "Object_1",
      "primitives": [
        {
          "attributes": {
            "NORMAL": 5,
            "POSITION": 4,
            "TEXCOORD_0": 6
          },
          "indices": 7,
          "material": 1,
          "mode": 4
        }
      ]
    },
    {
      "name": "Object_2",
      "primitives": [
        {
          "attributes": {
            "NORMAL": 9,
            "POSITION": 8,
            "TEXCOORD_0": 10
          },
          "indices": 11,
          "material": 1,
          "mode": 4
        }
      ]
    },
    {
      "name": "Object_3",
      "primitives": [
        {
          "attributes": {
            "NORMAL": 13,
            "POSITION": 12,
            "TEXCOORD_0": 14
          },
          "indices": 15,
          "material": 1,
          "mode": 4
        }
      ]
    },
    {
      "name": "Object_4",
      "primitives": [
        {
          "attributes": {
            "NORMAL": 17,
            "POSITION": 16,
            "TEXCOORD_0": 18
          },
          "indices": 19,
          "material": 1,
          "mode": 4
        }
      ]
    }
  ],
  "nodes": [
    {
      "children": [
        1
      ],
      "matrix": [
        1.0,
        0.0,
        0.0,
        0.0,
        0.0,
        2.220446049250313e-16,
        -1.0,
        0.0,
        0.0,
        1.0,
        2.220446049250313e-16,
        0.0,
        0.0,
        0.0,
        0.0,
        1.0
      ],
      "name": "Sketchfab_model"
    },
    {
      "children": [
        2
      ],
      "name": "root"
    },
    {
      "children": [
        3,
        5
      ],
      "matrix": [
        1.0,
        0.0,
        0.0,
        0.0,
        0.0,
        2.220446049250313e-16,
        1.0,
        0.0,
        0.0,
        -1.0,
        2.220446049250313e-16,
        0.0,
        0.0,
        0.0,
        0.0,
        1.0
      ],
      "name": "GLTF_SceneRootNode"
    },
    {
      "children": [
        4
      ],
      "matrix": [
        1.0,
        0.0,
        0.0,
        0.0,
        0.0,
        0.0,
        1.0,
        0.0,
        0.0,
        -1.0,
        0.0,
        0.0,
        0.0,
        20.651836395263672,
        0.0,
        1.0
      ],
      "name": "hospital 2.359_0"
    },
    {
      "mesh": 0,
      "name": "Object_4"
    },
    {
      "children": [
        6,
        7,
        8,
        9
      ],
      "matrix": [
        1.0,
        0.0,
        0.0,
        0.0,
        0.0,
        0.0,
        1.0,
        0.0,
        0.0,
        -1.0,
        0.0,
        0.0,
        0.0,
        20.651836395263672,
        0.0,
        1.0
      ],
      "name": "UV_Bake.001_1"
    },
    {
      "mesh": 1,
      "name": "Object_6"
    },
    {
      "mesh": 2,
      "name": "Object_7"
    },
    {
      "mesh": 3,
      "name": "Object_8"
    },
    {
      "mesh": 4,
      "name": "Object_9"
    }
  ],
  "samplers": [
    {
      "magFilter": 9729,
      "minFilter": 9987,
      "wrapS": 10497,
      "wrapT": 10497
    }
  ],
  "scene": 0,
  "scenes": [
    {
      "name": "Sketchfab_Scene",
      "nodes": [
        0
      ]
    }
  ],
  "textures": [
    {
      "sampler": 0,
      "source": 0
    }
  ]
}
